<svg id="Capa_1" data-name="Capa 1" xmlns="http://www.w3.org/2000/svg" viewBox="0 0 465.07 102.36"><defs><style>.cls-1{fill:#000100;}.cls-2{fill:#c3d216;}</style></defs><title>logo_globant</title><path class="cls-1" d="M427.25,314.36h27.64c8.29,0,14.6.77,18.15,2.75s5.14,5.53,5.14,10.26v22.9H463.56V328.55c0-2.76-.78-4.34-2-5.13s-3.93-1.17-7.89-1.17H441.86v28H427.25Z" transform="translate(-61.66 -284.32)"/><rect class="cls-1" x="140.2" y="16.6" width="15.39" height="49.34"/><path class="cls-1" d="M152.15,329.74v-8.68H190v29.21H155.69c-6.32,0-11.44-.38-14.61-1.18a29.07,29.07,0,0,1-9.86-3.16,21.29,21.29,0,0,1-8.69-7.9c-2-3.16-2.76-7.1-2.76-11.44,0-8.69,2.76-15,8.69-19.34,5.91-3.95,15-6.33,27.23-6.33H190v8.69H155.69c-6.32,0-11.05,1.18-13.81,3.95s-4.36,6.71-4.36,12.63c0,5.13,1.59,9.08,4.36,11.45s7.49,3.55,13.81,3.55h18.16V329.74Z" transform="translate(-61.66 -284.32)"/><path class="cls-2" d="M255.94,343.17a18.79,18.79,0,0,0,10.28-2.76,10.56,10.56,0,0,0,3.94-8.29,10.31,10.31,0,0,0-3.94-7.91c-2.37-2-5.93-2.75-10.28-2.75-4.72,0-8.28.79-10.65,2.75a10,10,0,0,0-3.55,7.91,10.26,10.26,0,0,0,3.55,8.29,19.22,19.22,0,0,0,10.65,2.76m0,7.49c-9.07,0-16.58-1.57-21.7-4.73-5.53-3.55-8.29-7.9-8.29-13.82,0-5.52,2.76-10.27,8.29-13.42,5.13-3.56,12.63-5.13,21.7-5.13.81,0,1.59,0,2.36,0,8,.26,14.28,1.86,19,5.1,5.52,3.15,8.28,7.9,8.28,13.42,0,5.92-2.76,10.27-7.89,13.82-5.53,3.16-12.64,4.73-21.72,4.73" transform="translate(-61.66 -284.32)"/><path class="cls-1" d="M322.26,342.38c4.34,0,7.51-.79,9.07-2.37,2.38-1.19,3.57-4,3.57-7.5,0-4-1.19-6.32-3.57-8.3a18.24,18.24,0,0,0-9.14-2.26c-.82,0-1.86-.1-3.88-.1h-8.69v20.53h12.64Zm0,7.89H294.63V300.92h15v13.44h12.64a62.39,62.39,0,0,1,13.41,1.17,20.13,20.13,0,0,1,8.69,4.34,18.8,18.8,0,0,1,4.73,5.15,18.25,18.25,0,0,1,1.59,6.69c0,5.93-2.76,10.27-7.5,13.42-4.74,3.56-11.45,5.14-20.13,5.14Z" transform="translate(-61.66 -284.32)"/><path class="cls-1" d="M385.81,350.27H374.35c-5.52,0-9.86-.79-13-2.77-2.77-2-4.34-4.33-4.34-7.49,0-4.35,1.57-7.12,5.12-9.08,3.56-1.58,9.08-2.77,17.38-2.77h19.33v-.79a4.85,4.85,0,0,0-2.76-4.34,29.28,29.28,0,0,0-10.26-1.58H360.55v-7.09H391c7.88,0,13.42.77,17.36,3.15s5.92,5.52,5.92,10.26v22.5Zm0-7.5h13v-7.12H381.46c-3.54,0-5.85-.14-7.28.66a3.19,3.19,0,0,0-1.79,3.3,3.07,3.07,0,0,0,1.57,2.76c.64.46,3.16.4,6.33.4Z" transform="translate(-61.66 -284.32)"/><path class="cls-2" d="M66.09,327.77c3.94,3.54,20.13,17.77,20.13,17.77S67.49,360.42,65.9,361.61c-2.56,2.05-5.51-.83-3.36-3.46,9.71-8.08,7.08-22.18-.29-27.93-1.92-2.07,1.29-5.34,3.84-2.45" transform="translate(-61.66 -284.32)"/><path class="cls-2" d="M66.09,285.46C70,289,86.22,303.23,86.22,303.23S67.49,318.12,65.9,319.31c-2.56,2-5.51-.84-3.36-3.46,9.71-8.09,7.08-22.18-.29-27.93-1.92-2.07,1.29-5.34,3.84-2.46" transform="translate(-61.66 -284.32)"/><path class="cls-2" d="M91.47,307.64c4,3.54,20.13,17.78,20.13,17.78S92.87,340.3,91.29,341.48c-2.57,2.06-5.52-.82-3.36-3.46,9.71-8.08,7.08-22.17-.29-27.91-1.92-2.08,1.28-5.35,3.83-2.47" transform="translate(-61.66 -284.32)"/><path class="cls-1" d="M485.28,314.36h10.66V300.92h14.6v13.44h15.79v7.09H510.54v14.6a6.66,6.66,0,0,0,2.36,5.53c1.19.79,3.57,1.58,7.11,1.58h6.32v7.1H512.9c-5.53,0-9.86-1.18-12.62-3.15-3.15-1.58-4.34-4.74-4.34-8.3V321.44H485.28Z" transform="translate(-61.66 -284.32)"/><path class="cls-1" d="M296.42,367.5l1.77,6.67c.35,1.47.7,2.86.94,4.22h.08c.3-1.33.74-2.75,1.18-4.2l2.15-6.69h2l2,6.59c.49,1.55.87,3,1.17,4.3h.08a41.49,41.49,0,0,1,1-4.27l1.88-6.62h2.37l-4.25,13.17h-2.18l-2-6.28c-.46-1.5-.84-2.8-1.16-4.35h-.06a41.68,41.68,0,0,1-1.2,4.38l-2.12,6.25h-2.17l-4-13.17Z" transform="translate(-61.66 -284.32)"/><path class="cls-1" d="M325,374.49c.05,3.24,2.09,4.58,4.49,4.58a9,9,0,0,0,3.65-.66l.44,1.69a10.81,10.81,0,0,1-4.41.84c-4,0-6.48-2.69-6.48-6.64s2.36-7.12,6.2-7.12c4.3,0,5.42,3.78,5.42,6.2a6.55,6.55,0,0,1-.08,1.14Zm7-1.71c0-1.49-.63-3.88-3.29-3.88-2.45,0-3.48,2.22-3.67,3.88Z" transform="translate(-61.66 -284.32)"/><path class="cls-1" d="M368.65,377.52a23,23,0,0,0,.19,3.15h-2.15l-.22-1.66h-.07a4.87,4.87,0,0,1-4,2,3.75,3.75,0,0,1-4-3.78c0-3.19,2.83-4.92,7.92-4.9V372a2.71,2.71,0,0,0-3-3,6.38,6.38,0,0,0-3.46,1l-.54-1.6a8.55,8.55,0,0,1,4.35-1.15c4.06,0,5,2.75,5,5.39ZM366.31,374c-2.61-.05-5.58.41-5.58,3a2.11,2.11,0,0,0,2.24,2.29A3.33,3.33,0,0,0,366.2,377a2.5,2.5,0,0,0,.11-.76V374Z" transform="translate(-61.66 -284.32)"/><path class="cls-1" d="M380.68,371.61c0-1.55,0-2.88-.11-4.11h2.09l.12,2.59h.08a4,4,0,0,1,3.67-2.88,2.75,2.75,0,0,1,.65.08v2.23a7.05,7.05,0,0,0-.84-.06,3.36,3.36,0,0,0-3.21,3.05,7,7,0,0,0-.08,1.14v7h-2.4Z" transform="translate(-61.66 -284.32)"/><path class="cls-1" d="M398.58,374.49c.06,3.24,2.1,4.58,4.49,4.58a9,9,0,0,0,3.65-.66l.44,1.69a10.81,10.81,0,0,1-4.41.84c-4,0-6.48-2.69-6.48-6.64s2.37-7.12,6.2-7.12c4.3,0,5.42,3.78,5.42,6.2a6.55,6.55,0,0,1-.08,1.14Zm7-1.71c0-1.49-.63-3.88-3.3-3.88-2.45,0-3.48,2.22-3.67,3.88Z" transform="translate(-61.66 -284.32)"/><path class="cls-1" d="M433,371.61c0-1.55,0-2.88-.11-4.11H435l.11,2.59h.08a4,4,0,0,1,3.68-2.88,2.67,2.67,0,0,1,.64.08v2.23a6.75,6.75,0,0,0-.84-.06,3.35,3.35,0,0,0-3.2,3.05,7,7,0,0,0-.08,1.14v7H433Z" transform="translate(-61.66 -284.32)"/><path class="cls-1" d="M450.88,374.49c.05,3.24,2.09,4.58,4.49,4.58a8.93,8.93,0,0,0,3.64-.66l.44,1.69a10.73,10.73,0,0,1-4.41.84c-4,0-6.48-2.69-6.48-6.64s2.37-7.12,6.21-7.12c4.29,0,5.41,3.78,5.41,6.2a8,8,0,0,1-.07,1.14Zm7-1.71c0-1.49-.63-3.88-3.29-3.88-2.46,0-3.49,2.22-3.68,3.88Z" transform="translate(-61.66 -284.32)"/><path class="cls-1" d="M480.59,377.52a23,23,0,0,0,.19,3.15h-2.15l-.22-1.66h-.08a4.86,4.86,0,0,1-4,2,3.75,3.75,0,0,1-4-3.78c0-3.19,2.82-4.92,7.91-4.9V372c0-1.09-.29-3.07-3-3a6.4,6.4,0,0,0-3.46,1l-.54-1.6a8.56,8.56,0,0,1,4.36-1.15c4.05,0,5,2.75,5,5.39ZM478.25,374c-2.62-.05-5.58.41-5.58,3a2.1,2.1,0,0,0,2.22,2.29,3.32,3.32,0,0,0,3.24-2.21,2.5,2.5,0,0,0,.11-.76V374Z" transform="translate(-61.66 -284.32)"/><path class="cls-1" d="M504,361.35v15.92c0,1.18,0,2.5.12,3.4h-2.15l-.11-2.28h-.06a4.82,4.82,0,0,1-4.46,2.58c-3.18,0-5.66-2.69-5.66-6.69,0-4.4,2.72-7.08,5.91-7.08a4.38,4.38,0,0,1,4,2h.06v-7.84Zm-2.38,11.52a5.25,5.25,0,0,0-.11-1,3.53,3.53,0,0,0-3.46-2.75c-2.47,0-3.95,2.18-3.95,5.06,0,2.69,1.33,4.9,3.89,4.9a3.66,3.66,0,0,0,3.52-2.86,4.8,4.8,0,0,0,.1-1v-2.28Z" transform="translate(-61.66 -284.32)"/><path class="cls-1" d="M517,367.5l2.86,7.78c.33.88.66,1.91.87,2.7h.06c.24-.79.52-1.79.84-2.75l2.61-7.73h2.53l-3.59,9.39c-1.71,4.52-2.89,6.83-4.52,8.27a6.71,6.71,0,0,1-2.94,1.52l-.6-2a5.68,5.68,0,0,0,2.1-1.17,7.58,7.58,0,0,0,2-2.67,1.46,1.46,0,0,0,.19-.57,1.53,1.53,0,0,0-.19-.59l-4.84-12.17Z" transform="translate(-61.66 -284.32)"/></svg>